<?xml version="1.0" encoding="UTF-8"?>
<svg id="Livello_2" data-name="Livello 2" xmlns="http://www.w3.org/2000/svg" viewBox="0 0 1320.52 1005.65">
  <defs>
    <style>
      .cls-1 {
        fill: #f9fcfe;
      }
    </style>
  </defs>
  <g id="monogram_-_bianco" data-name="monogram - bianco">
    <g>
      <path class="cls-1" d="M94.94,363.05c0,25.54-20.78,46.32-46.32,46.32-7.86,0-15.6-2.03-22.5-5.88L0,449.03c82.84,47.32,171.34,83.23,263.14,106.78-.25-7.16-.38-14.45-.38-21.72,0-56.92,8.99-117.13,26.71-178.99-65.91-18.95-129.69-45.89-189.62-80.1l-27.65,48.2c14.08,8.33,22.74,23.42,22.74,39.86Z"/>
      <path class="cls-1" d="M1251.91,763.72c-25.54,0-46.32-20.78-46.32-46.32,0-14.94,7.15-28.83,19.24-37.55l-43.36-62.37c-42.54,46.7-88.12,83.29-135.54,108.78l21.6,32.78-43.27,28.51-26.09-39.6c-48.5,18.11-103.55,27.29-163.66,27.29-8.42,0-17.04-.37-25.63-1.1-35.7-2.56-71.1-11.7-105.12-27.28-62.43-24.87-195.64-166.56-106.45-344.83,22.44-48.29,56.81-88.11,102.16-118.35,26.17-17.45,54.92-30.29,85.43-38.17.93-.28,1.95-.53,2.96-.77,25.27-6.55,51.41-9.65,77.74-9.31,8.05,0,146.61-4.06,157.6,84.8.89,18.78-9.13,35.66-28.98,48.8-86.72,51.39-202.29,69.5-343.61,53.89-15.12,32.04-53.01,107.83,5.3,203.3,105.35,11.74,214.04,8.41,306.16-9.39,109.42-21.14,195.04-62.53,247.59-119.71,58.7-63.86,78.26-147.62,58.14-248.94-28.83-120.21-124.23-203.85-268.63-235.46-16.13-3.53-85.72-14.83-137.57-12.39-99.15,0-184.42,17.1-253.44,50.82-69.03,33.72-125.39,78.06-167.52,131.78-42.17,53.76-73.17,112.29-92.14,173.95-18.99,61.7-28.61,121.32-28.61,177.2,0,92.73,21.63,175.54,64.29,246.11,42.66,70.57,103.01,126.38,179.38,165.88,75.23,38.91,163.7,58.94,262.95,59.55l3.93-.05,3.15.08c54.24-.11,103.86-3.95,147.44-11.43l.57-.1c50.86-9.83,98.98-25.6,147.01-48.17l-25.3-38.4,43.27-28.51,28.31,42.97c15.48-8.75,30.78-18.12,45.51-27.88,31.05-22.25,60.45-44.37,87.34-65.72,4.26-3.56,8.52-7.23,12.77-10.91l-42.86-61.65c-7.66,5.16-16.52,7.88-25.75,7.88ZM1085.2,880.05l-42.82-64.99,43.27-28.51,42.82,64.99-43.27,28.51Z"/>
    </g>
  </g>
</svg>