<?xml version="1.0" encoding="UTF-8"?>
<svg id="Livello_2" data-name="Livello 2" xmlns="http://www.w3.org/2000/svg" viewBox="0 0 1333.33 1014.95">
  <defs>
    <style>
      .cls-1 {
        fill: #578dca;
      }
    </style>
  </defs>
  <g id="monogram_-_azzurro" data-name="monogram  - azzurro">
    <g>
      <path class="cls-1" d="M102.4,275.46l-29.81,51.96c14.05,7.5,23.61,22.29,23.61,39.33,0,24.62-19.96,44.57-44.57,44.57-8.58,0-16.56-2.46-23.35-6.66L0,453.95c67.13,38.51,158.52,81.08,269.45,109.24-.32-8.07-.48-16.22-.48-24.45,0-57.72,9.19-118.65,27.34-181.37-78.86-22.47-144.49-53.55-193.9-81.91Z"/>
      <path class="cls-1" d="M1288.05,758.94c-7.39,5.45-16.5,8.71-26.39,8.71-24.62,0-44.57-19.96-44.57-44.57,0-15.59,8.01-29.29,20.13-37.25l-46.19-66.43c-43.92,48.59-90.38,85.85-139.39,111.87l21.83,33.13-40.17,26.47-26.02-39.48c-49.07,18.56-104.18,27.88-165.37,27.88-8.58,0-17.1-.37-25.6-1.1-35.86-2.57-70.87-11.65-105.05-27.26-49.79-24.75-91.23-66.03-117.1-127.26.75.13,1.5.27,2.24.4-25.47-60.93-30.76-135.67,4.76-208.28.75-1.74,1.5-3.47,2.3-5.18.56-1.26,1.15-2.51,1.74-3.77,22.53-48.48,56.55-87.87,102.03-118.2,26.22-17.48,54.65-30.2,85.3-38.11.99-.29,1.98-.53,2.97-.78,24.88-6.44,50.93-9.67,77.66-9.3,7.99,0,15.61.19,22.88.59,1.68.05,3.34.16,5,.27.64.05,1.26.11,1.9.16.29.03.56.03.83.05,7.7.61,14.96,1.5,21.78,2.59,0-.08.03-.19.03-.27,18.09,2.64,33.24,6.87,45.4,12.64,3.66,1.52,7.22,3.21,10.64,5.05,46.5,24.8,70.47,76.05,19.83,109.59-100.93,59.81-228.83,66.78-345.61,53.71-1.84,3.77-3.61,7.62-5.29,11.52l-.53,1.28-.61,1.23c-35.68,72.55-19.32,144.17,11.76,194.44,287.92,32.34,686.9-37.97,618.48-382.44-32.01-133.51-141.87-209.94-271.67-238.35-17.39-3.8-53.19-8.43-53.24-8.24.13.01.27.03.4.04-26.62-2.86-55.24-4.3-85.94-4.3-100.48,0-185.73,17.1-255.74,51.31-70.01,34.21-126.4,78.57-169.16,133.08-42.76,54.52-73.76,113.04-93,175.57-19.24,62.53-28.86,122.13-28.86,178.78,0,94.07,21.65,176.91,64.94,248.53,43.29,71.62,103.69,127.47,181.18,167.56,76.27,39.44,164.72,59.49,265.34,60.1,1.34-.03,2.67-.03,4.01-.05,1.02.03,2.06.05,3.07.08,55-.11,104.57-3.95,148.66-11.52.21-.03.43-.05.61-.11,53.51-10.35,103.28-27.25,150.39-49.58l-25.61-38.87,40.17-26.47,28.4,43.1c16.11-9.06,31.95-18.72,47.51-29.03,31.67-22.69,60.98-44.76,87.97-66.19,4.78-4.01,9.54-8.1,14.27-12.21l-45.28-65.13ZM1094.59,883.87l-40.86-62.01,40.17-26.47,40.86,62.01-40.17,26.47Z"/>
    </g>
  </g>
</svg>