<?xml version="1.0" encoding="UTF-8"?>
<svg id="Livello_2" data-name="Livello 2" xmlns="http://www.w3.org/2000/svg" viewBox="0 0 2566.33 547.89">
  <defs>
    <style>
      .cls-1 {
        fill: #578dca;
      }
    </style>
  </defs>
  <g id="orizzontale_-_nero_copia" data-name="orizzontale  - nero copia">
    <g>
      <g>
        <path class="cls-1" d="M909.11,188.84h135.98v30.27h-98.76v37.97h87.35v30.03h-87.35v41.44h100.25v30.52h-137.47v-170.23Z"/>
        <path class="cls-1" d="M1065.91,228.54h36.48l19.11,55.09c2.98,8.19,8.44,27.3,11.66,39.7h1.24c3.23-11.66,8.19-30.27,11.42-39.7l19.11-55.09h34.74l-48.88,130.52h-36.23l-48.64-130.52Z"/>
        <path class="cls-1" d="M1336.14,292.57c0-46.66-21.33-67-61.03-67-42.19,0-65.01,21.58-65.01,68.24s22.57,68.24,65.76,68.24c31.74,0,54.65-12.72,59.38-38.72h-34.82c-3.77,8.74-12.72,13.16-24.56,13.16-21.58,0-30.04-11.92-30.79-35h91.07v-8.92ZM1245.58,279.67c2.22-19.13,10.91-28.54,30.01-28.54,15.15,0,25.07,8.43,25.07,28.54h-55.09Z"/>
        <path class="cls-1" d="M1361.47,228.54h28.54l2.73,17.87h1.74c9.18-12.66,23.57-20.84,42.43-20.84,26.05,0,42.93,13.4,42.93,46.15v87.35h-34.49v-81.89c0-16.63-8.44-23.08-22.33-23.08-15.38,0-27.05,12.16-27.05,28.78v76.18h-34.49v-130.52Z"/>
        <path class="cls-1" d="M1520.25,328.79v-73.7h-16.13v-26.55h17.37l6.45-37.22h26.8v37.22h23.82v26.55h-23.82v67.99c0,7.94,3.47,12.16,11.66,12.16h12.16v22.83c-5.71,1.98-16.13,3.97-23.58,3.97-24.81,0-34.74-14.89-34.74-33.25Z"/>
        <path class="cls-1" d="M1646.03,219.1v42.19h75.79c-2.35,7.99-3.54,17.22-3.54,27.69,0,.8,0,1.58.05,2.35h-72.3v67.73h-36.99v-170.22h125.58v30.27h-88.59Z"/>
        <path class="cls-1" d="M1903.61,315.89v-87.35h34.49v81.64c0,16.87,8.44,23.08,22.33,23.08,15.38,0,27.05-12.16,27.05-28.78v-75.93h34.49v130.52h-28.29l-2.48-17.87h-1.74c-9.18,12.41-24.07,20.84-42.68,20.84-26.3,0-43.18-13.4-43.18-46.15Z"/>
        <path class="cls-1" d="M2285.22,293.8c0-46.65,23.57-68.24,66.5-68.24s66.75,21.59,66.75,68.24-23.33,68.24-66.75,68.24-66.5-21.59-66.5-68.24ZM2383.24,296.78v-5.96c0-25.56-8.93-38.71-31.52-38.71s-31.27,13.15-31.27,38.71v5.96c0,25.56,8.93,38.46,31.27,38.46s31.52-12.9,31.52-38.46Z"/>
        <path class="cls-1" d="M2447.97,315.89v-87.35h34.49v81.64c0,16.87,8.44,23.08,22.33,23.08,15.38,0,27.05-12.16,27.05-28.78v-75.93h34.49v130.52h-28.29l-2.48-17.87h-1.74c-9.18,12.41-24.07,20.84-42.68,20.84-26.3,0-43.18-13.4-43.18-46.15Z"/>
        <path class="cls-1" d="M2117.03,225.32c-16.13,0-25.31,10.68-30.27,23.58h-1.73l-2.74-20.34h-28.54v130.52h34.48v-65.27c0-23.06,10.19-34.72,31.02-34.72h2.09v.05h20.15l-21.86-33.69c-.86-.07-1.73-.12-2.61-.12Z"/>
        <path class="cls-1" d="M2195.87,290.58l-66.01-101.74h42.93l42.18,68.49h1.24l41.94-68.49h40.45l-65.51,101.74v68.49h-37.22v-68.49Z"/>
        <path class="cls-1" d="M1746.03,293.8c0-46.65,23.57-68.24,66.5-68.24s66.75,21.59,66.75,68.24-23.33,68.24-66.75,68.24-66.5-21.59-66.5-68.24ZM1844.05,296.78v-5.96c0-25.56-8.93-38.71-31.52-38.71s-31.27,13.15-31.27,38.71v5.96c0,25.56,8.93,38.46,31.27,38.46s31.52-12.9,31.52-38.46Z"/>
      </g>
      <g>
        <path class="cls-1" d="M55.28,148.7l-16.09,28.05c7.58,4.05,12.75,12.03,12.75,21.23,0,13.29-10.77,24.06-24.06,24.06-4.63,0-8.94-1.33-12.61-3.6L0,245.05c36.24,20.79,85.57,43.77,145.45,58.97-.17-4.36-.26-8.76-.26-13.2,0-31.16,4.96-64.05,14.76-97.91-42.57-12.13-78-28.91-104.67-44.21Z"/>
        <path class="cls-1" d="M695.31,409.69c-3.99,2.94-8.91,4.7-14.25,4.7-13.29,0-24.06-10.77-24.06-24.06,0-8.41,4.33-15.81,10.87-20.11l-24.93-35.86c-23.71,26.23-48.79,46.34-75.25,60.39l11.78,17.88-21.68,14.29-14.04-21.31c-26.49,10.02-56.24,15.05-89.27,15.05-4.63,0-9.23-.2-13.82-.59-19.36-1.38-38.26-6.29-56.71-14.71-26.87-13.36-49.25-35.65-63.21-68.7.4.07.81.14,1.21.22-13.75-32.89-16.6-73.24,2.57-112.43.4-.94.81-1.88,1.24-2.8.3-.68.62-1.36.94-2.03,12.16-26.17,30.52-47.43,55.08-63.8,14.15-9.43,29.5-16.3,46.05-20.57.53-.16,1.07-.29,1.6-.42,13.43-3.48,27.5-5.22,41.92-5.02,4.31,0,8.42.1,12.35.32.91.03,1.8.09,2.7.14.35.03.68.06,1.02.09.16.01.3.01.45.03,4.15.33,8.08.81,11.76,1.4,0-.04.01-.1.01-.14,9.77,1.43,17.95,3.71,24.51,6.82,1.98.82,3.89,1.73,5.74,2.73,25.1,13.39,38.04,41.06,10.7,59.16-54.49,32.28-123.53,36.05-186.57,29-1,2.03-1.95,4.11-2.86,6.22l-.29.69-.33.66c-19.26,39.17-10.43,77.83,6.35,104.96,155.42,17.46,370.8-20.5,333.87-206.45-17.28-72.07-76.59-113.33-146.65-128.66-9.39-2.05-28.71-4.55-28.74-4.45.07,0,.15.01.22.02-14.37-1.54-29.82-2.32-46.39-2.32-54.24,0-100.26,9.23-138.05,27.7-37.8,18.46-68.23,42.41-91.31,71.84-23.08,29.43-39.81,61.02-50.2,94.78-10.39,33.76-15.58,65.93-15.58,96.51,0,50.78,11.68,95.5,35.05,134.16,23.37,38.66,55.97,68.81,97.81,90.45,41.17,21.29,88.92,32.11,143.23,32.44.72-.01,1.44-.01,2.16-.03.55.01,1.11.03,1.66.04,29.69-.06,56.45-2.13,80.25-6.22.12-.01.23-.03.33-.06,28.88-5.59,55.75-14.71,81.18-26.76l-13.83-20.98,21.68-14.29,15.33,23.26c8.7-4.89,17.25-10.11,25.65-15.67,17.09-12.25,32.92-24.16,47.49-35.73,2.58-2.16,5.15-4.37,7.7-6.59l-24.44-35.16ZM590.87,477.13l-22.05-33.47,21.68-14.29,22.05,33.47-21.68,14.29Z"/>
      </g>
    </g>
  </g>
</svg>