<?xml version="1.0" encoding="UTF-8"?>
<svg id="Livello_2" data-name="Livello 2" xmlns="http://www.w3.org/2000/svg" viewBox="0 0 2548.79 524.5">
  <defs>
    <style>
      .cls-1 {
        fill: #f9fcfe;
      }
    </style>
  </defs>
  <g id="orizzontale_-_nero" data-name="orizzontale  - nero">
    <g>
      <g>
        <path class="cls-1" d="M879.57,176.53h136.97v30.49h-99.48v38.24h87.98v30.24h-87.98v41.74h100.98v30.74h-138.47v-171.46Z"/>
        <path class="cls-1" d="M1037.5,216.52h36.74l19.25,55.49c3,8.25,8.5,27.49,11.75,39.99h1.25c3.25-11.74,8.25-30.49,11.5-39.99l19.25-55.49h34.99l-49.24,131.47h-36.49l-48.99-131.47Z"/>
        <path class="cls-1" d="M1309.69,281.01c0-47-21.48-67.49-61.47-67.49-42.49,0-65.48,21.74-65.48,68.74s22.73,68.74,66.24,68.74c31.97,0,55.04-12.81,59.81-39h-35.07c-3.8,8.8-12.81,13.25-24.74,13.25-21.74,0-30.26-12-31.01-35.25h91.73v-8.98ZM1218.48,268.02c2.24-19.27,10.99-28.75,30.23-28.75,15.26,0,25.26,8.49,25.26,28.75h-55.49Z"/>
        <path class="cls-1" d="M1335.2,216.52h28.74l2.75,17.99h1.75c9.25-12.75,23.74-20.99,42.74-20.99,26.24,0,43.24,13.5,43.24,46.49v87.98h-34.74v-82.48c0-16.75-8.5-23.24-22.5-23.24-15.5,0-27.24,12.25-27.24,28.99v76.73h-34.74v-131.47Z"/>
        <path class="cls-1" d="M1495.13,317.49v-74.23h-16.25v-26.74h17.5l6.5-37.49h26.99v37.49h24v26.74h-24v68.48c0,8,3.5,12.25,11.75,12.25h12.25v22.99c-5.75,2-16.25,4-23.75,4-24.99,0-34.99-15-34.99-33.49Z"/>
        <path class="cls-1" d="M1621.82,207.01v42.49h76.34c-2.37,8.05-3.57,17.34-3.57,27.89,0,.81,0,1.59.05,2.37h-72.83v68.22h-37.26v-171.46h126.49v30.49h-89.23Z"/>
        <path class="cls-1" d="M1881.27,304.5v-87.98h34.74v82.23c0,17,8.5,23.24,22.5,23.24,15.5,0,27.24-12.25,27.24-28.99v-76.48h34.74v131.47h-28.49l-2.5-17.99h-1.75c-9.25,12.5-24.24,21-42.99,21-26.49,0-43.49-13.5-43.49-46.49Z"/>
        <path class="cls-1" d="M2265.64,282.25c0-46.99,23.74-68.73,66.99-68.73s67.23,21.74,67.23,68.73-23.49,68.73-67.23,68.73-66.99-21.75-66.99-68.73ZM2364.36,285.25v-6c0-25.74-9-38.99-31.74-38.99s-31.49,13.25-31.49,38.99v6c0,25.74,9,38.74,31.49,38.74s31.74-13,31.74-38.74Z"/>
        <path class="cls-1" d="M2429.57,304.5v-87.98h34.74v82.23c0,17,8.5,23.24,22.5,23.24,15.5,0,27.24-12.25,27.24-28.99v-76.48h34.74v131.47h-28.49l-2.5-17.99h-1.75c-9.25,12.5-24.24,21-42.99,21-26.49,0-43.49-13.5-43.49-46.49Z"/>
        <path class="cls-1" d="M2096.23,213.27c-16.25,0-25.49,10.75-30.49,23.75h-1.74l-2.76-20.49h-28.75v131.46h34.73v-65.74c0-23.23,10.26-34.97,31.24-34.97h2.11v.05h20.3l-22.02-33.94c-.86-.07-1.74-.12-2.63-.12Z"/>
        <path class="cls-1" d="M2175.65,279l-66.48-102.47h43.24l42.49,68.98h1.25l42.24-68.98h40.74l-65.99,102.47v68.98h-37.49v-68.98Z"/>
        <path class="cls-1" d="M1722.55,282.25c0-46.99,23.74-68.73,66.99-68.73s67.23,21.74,67.23,68.73-23.49,68.73-67.23,68.73-66.99-21.75-66.99-68.73ZM1821.27,285.25v-6c0-25.74-9-38.99-31.74-38.99s-31.49,13.25-31.49,38.99v6c0,25.74,9,38.74,31.49,38.74s31.74-13,31.74-38.74Z"/>
      </g>
      <g>
        <path class="cls-1" d="M49.52,189.35c0,13.32-10.84,24.16-24.16,24.16-4.1,0-8.13-1.06-11.73-3.07L0,234.19c43.21,24.68,89.36,43.41,137.24,55.69-.13-3.73-.2-7.54-.2-11.33,0-29.69,4.69-61.09,13.93-93.35-34.38-9.89-67.64-23.94-98.89-41.78l-14.42,25.14c7.34,4.35,11.86,12.22,11.86,20.79Z"/>
        <path class="cls-1" d="M652.93,398.32c-13.32,0-24.16-10.84-24.16-24.16,0-7.79,3.73-15.04,10.03-19.59l-22.61-32.53c-22.18,24.36-45.96,43.44-70.69,56.73l11.27,17.1-22.57,14.87-13.61-20.65c-25.3,9.44-54.01,14.23-85.36,14.23-4.39,0-8.89-.19-13.37-.57-18.62-1.33-37.08-6.1-54.83-14.23-32.56-12.97-102.04-86.87-55.52-179.84,11.7-25.19,29.63-45.95,53.28-61.73,13.65-9.1,28.64-15.8,44.56-19.91.49-.15,1.01-.28,1.54-.4,13.18-3.41,26.81-5.03,40.55-4.86,4.2,0,76.46-2.12,82.2,44.23.47,9.8-4.76,18.6-15.11,25.45-45.23,26.8-105.5,36.25-179.21,28.11-7.88,16.71-27.65,56.24,2.76,106.03,54.95,6.12,111.63,4.38,159.68-4.9,57.07-11.02,101.72-32.61,129.13-62.44,30.61-33.31,40.82-76.99,30.32-129.83-15.03-62.69-64.79-106.32-140.1-122.8-8.41-1.84-44.7-7.74-71.75-6.46-51.71,0-96.18,8.92-132.18,26.5-36,17.59-65.4,40.71-87.37,68.73-21.99,28.04-38.16,58.56-48.06,90.72-9.9,32.18-14.92,63.27-14.92,92.42,0,48.37,11.28,91.55,33.53,128.36,22.25,36.81,53.73,65.91,93.56,86.52,39.24,20.29,85.38,30.74,137.14,31.06l2.05-.03,1.64.04c28.29-.06,54.17-2.06,76.9-5.96l.3-.05c26.53-5.13,51.62-13.35,76.67-25.12l-13.2-20.03,22.57-14.87,14.77,22.41c8.07-4.56,16.05-9.45,23.74-14.54,16.19-11.6,31.53-23.14,45.55-34.28,2.22-1.86,4.45-3.77,6.66-5.69l-22.35-32.15c-4,2.69-8.62,4.11-13.43,4.11ZM565.98,458.99l-22.33-33.9,22.57-14.87,22.33,33.9-22.57,14.87Z"/>
      </g>
    </g>
  </g>
</svg>