<?xml version="1.0" encoding="UTF-8"?>
<svg id="Livello_2" data-name="Livello 2" xmlns="http://www.w3.org/2000/svg" viewBox="0 0 2155.69 1122.75">
  <defs>
    <style>
      .cls-1 {
        fill: #f9fcfe;
      }
    </style>
  </defs>
  <g id="verticale_-_bianco" data-name="verticale  - bianco">
    <g>
      <g>
        <path class="cls-1" d="M0,897.43h176.89v39.38H48.42v49.38h113.62v39.06H48.42v53.91h130.4v39.7H0v-221.43Z"/>
        <path class="cls-1" d="M203.96,949.08h47.45l24.85,71.66c3.87,10.65,10.97,35.51,15.17,51.64h1.61c4.2-15.17,10.65-39.38,14.85-51.64l24.85-71.66h45.19l-63.59,169.78h-47.13l-63.27-169.78Z"/>
        <path class="cls-1" d="M555.47,1032.36c0-60.69-27.74-87.16-79.39-87.16-54.88,0-84.57,28.08-84.57,88.77s29.36,88.77,85.54,88.77c41.29,0,71.09-16.54,77.24-50.37h-45.29c-4.91,11.37-16.54,17.12-31.94,17.12-28.08,0-39.07-15.5-40.05-45.53h118.46v-11.6ZM437.68,1015.58c2.89-24.88,14.19-37.12,39.04-37.12,19.7,0,32.62,10.96,32.62,37.12h-71.66Z"/>
        <path class="cls-1" d="M588.42,949.08h37.12l3.55,23.24h2.26c11.94-16.46,30.66-27.11,55.2-27.11,33.89,0,55.84,17.43,55.84,60.04v113.62h-44.87v-106.52c0-21.63-10.97-30.02-29.05-30.02-20.01,0-35.18,15.81-35.18,37.44v99.09h-44.87v-169.78Z"/>
        <path class="cls-1" d="M794.96,1079.48v-95.87h-20.98v-34.54h22.6l8.39-48.42h34.86v48.42h30.99v34.54h-30.99v88.44c0,10.33,4.52,15.82,15.17,15.82h15.82v29.7c-7.42,2.58-20.98,5.17-30.67,5.17-32.28,0-45.19-19.37-45.19-43.25Z"/>
        <path class="cls-1" d="M958.58,936.8v54.88h98.59c-3.06,10.39-4.61,22.39-4.61,36.01,0,1.04,0,2.05.07,3.06h-94.05v88.1h-48.12v-221.43h163.35v39.38h-115.24Z"/>
        <path class="cls-1" d="M1293.64,1062.7v-113.62h44.87v106.2c0,21.95,10.97,30.02,29.05,30.02,20.01,0,35.18-15.81,35.18-37.44v-98.77h44.87v169.78h-36.79l-3.23-23.24h-2.26c-11.94,16.14-31.31,27.11-55.52,27.11-34.21,0-56.16-17.43-56.16-60.04Z"/>
        <path class="cls-1" d="M1790.02,1033.97c0-60.68,30.66-88.76,86.51-88.76s86.83,28.08,86.83,88.76-30.34,88.77-86.83,88.77-86.51-28.08-86.51-88.77ZM1917.52,1037.84v-7.75c0-33.25-11.62-50.36-40.99-50.36s-40.67,17.11-40.67,50.36v7.75c0,33.24,11.62,50.03,40.67,50.03s40.99-16.79,40.99-50.03Z"/>
        <path class="cls-1" d="M2001.73,1062.7v-113.62h44.87v106.2c0,21.95,10.97,30.02,29.05,30.02,20.01,0,35.18-15.81,35.18-37.44v-98.77h44.87v169.78h-36.79l-3.23-23.24h-2.26c-11.94,16.14-31.31,27.11-55.52,27.11-34.21,0-56.16-17.43-56.16-60.04Z"/>
        <path class="cls-1" d="M1571.24,944.88c-20.98,0-32.92,13.89-39.38,30.67h-2.25l-3.56-26.46h-37.12v169.78h44.86v-84.9c0-29.99,13.25-45.16,40.35-45.16h2.72v.07h26.21l-28.43-43.83c-1.12-.09-2.25-.16-3.39-.16Z"/>
        <path class="cls-1" d="M1673.81,1029.77l-85.86-132.34h55.84l54.87,89.09h1.62l54.55-89.09h52.62l-85.22,132.34v89.09h-48.42v-89.09Z"/>
        <path class="cls-1" d="M1088.65,1033.97c0-60.68,30.66-88.76,86.51-88.76s86.83,28.08,86.83,88.76-30.34,88.77-86.83,88.77-86.51-28.08-86.51-88.77ZM1216.16,1037.84v-7.75c0-33.25-11.62-50.36-40.99-50.36s-40.67,17.11-40.67,50.36v7.75c0,33.24,11.62,50.03,40.67,50.03s40.99-16.79,40.99-50.03Z"/>
      </g>
      <g>
        <path class="cls-1" d="M645.28,244.08c0,17.17-13.97,31.14-31.14,31.14-5.29,0-10.49-1.36-15.12-3.95l-17.56,30.61c55.7,31.81,115.2,55.96,176.91,71.79-.17-4.81-.26-9.72-.26-14.6,0-38.27,6.04-78.75,17.96-120.34-44.31-12.74-87.19-30.85-127.48-53.85l-18.59,32.41c9.47,5.6,15.29,15.75,15.29,26.8Z"/>
        <path class="cls-1" d="M1423.12,513.45c-17.17,0-31.14-13.97-31.14-31.14,0-10.05,4.81-19.39,12.93-25.25l-29.15-41.93c-28.6,31.4-59.24,55.99-91.13,73.13l14.52,22.04-29.09,19.17-17.54-26.62c-32.61,12.17-69.62,18.35-110.03,18.35-5.66,0-11.45-.25-17.23-.74-24-1.72-47.8-7.86-70.68-18.34-41.97-16.72-131.53-111.98-71.57-231.83,15.09-32.47,38.2-59.24,68.68-79.57,17.6-11.73,36.92-20.37,57.44-25.66.63-.19,1.31-.36,1.99-.52,16.99-4.4,34.57-6.49,52.27-6.26,5.41,0,98.57-2.73,105.96,57.01.6,12.63-6.14,23.97-19.48,32.81-58.3,34.55-136,46.73-231.01,36.23-10.16,21.54-35.64,72.5,3.56,136.68,70.83,7.89,143.9,5.65,205.84-6.31,73.56-14.21,131.12-42.04,166.46-80.48,39.46-42.93,52.61-99.24,39.09-167.37-19.38-80.82-83.52-137.05-180.6-158.3-10.85-2.38-57.63-9.97-92.49-8.33-66.66,0-123.98,11.49-170.39,34.17-46.41,22.67-84.3,52.48-112.63,88.6-28.35,36.14-49.19,75.49-61.95,116.95-12.76,41.48-19.24,81.56-19.24,119.13,0,62.35,14.54,118.02,43.22,165.46,28.68,47.45,69.26,84.97,120.6,111.52,50.58,26.16,110.06,39.62,176.79,40.03l2.64-.04,2.12.05c36.46-.07,69.83-2.66,99.13-7.68l.38-.07c34.2-6.61,66.54-17.21,98.83-32.38l-17.01-25.82,29.09-19.17,19.03,28.89c10.4-5.88,20.69-12.19,30.6-18.74,20.87-14.96,40.64-29.83,58.72-44.18,2.86-2.4,5.73-4.86,8.59-7.34l-28.82-41.45c-5.15,3.47-11.11,5.3-17.31,5.3ZM1311.04,591.66l-28.79-43.69,29.09-19.17,28.79,43.7-29.09,19.17Z"/>
      </g>
    </g>
  </g>
</svg>