<?xml version="1.0" encoding="UTF-8"?>
<svg id="Livello_2" data-name="Livello 2" xmlns="http://www.w3.org/2000/svg" viewBox="0 0 2140.47 1143">
  <defs>
    <style>
      .cls-1 {
        fill: #578dca;
      }
    </style>
  </defs>
  <g id="verticale_-_azzurro" data-name="verticale - azzurro">
    <g>
      <g>
        <path class="cls-1" d="M0,919.27h175.64v39.1H48.08v49.04h112.82v38.78H48.08v53.53h129.48v39.42H0v-219.86Z"/>
        <path class="cls-1" d="M202.52,970.55h47.12l24.68,71.15c3.84,10.58,10.9,35.26,15.06,51.28h1.6c4.17-15.06,10.58-39.1,14.74-51.28l24.68-71.15h44.87l-63.14,168.58h-46.79l-62.82-168.58Z"/>
        <path class="cls-1" d="M551.55,1053.25c0-60.27-27.55-86.54-78.83-86.54-54.49,0-83.97,27.88-83.97,88.14s29.15,88.14,84.94,88.14c41,0,70.58-16.43,76.69-50.02h-44.97c-4.87,11.29-16.43,16.99-31.72,16.99-27.88,0-38.8-15.39-39.77-45.21h117.63v-11.52ZM434.59,1036.59c2.87-24.71,14.09-36.86,38.76-36.86,19.57,0,32.39,10.88,32.39,36.86h-71.15Z"/>
        <path class="cls-1" d="M584.27,970.55h36.86l3.52,23.08h2.24c11.86-16.35,30.45-26.92,54.81-26.92,33.65,0,55.45,17.31,55.45,59.61v112.82h-44.55v-105.77c0-21.47-10.9-29.8-28.85-29.8-19.87,0-34.93,15.7-34.93,37.18v98.39h-44.55v-168.58Z"/>
        <path class="cls-1" d="M789.35,1100.04v-95.19h-20.84v-34.29h22.44l8.33-48.07h34.61v48.07h30.77v34.29h-30.77v87.82c0,10.26,4.49,15.71,15.06,15.71h15.71v29.49c-7.37,2.56-20.84,5.13-30.45,5.13-32.05,0-44.87-19.23-44.87-42.95Z"/>
        <path class="cls-1" d="M951.81,958.36v54.49h97.89c-3.04,10.32-4.57,22.24-4.57,35.76,0,1.04,0,2.04.07,3.04h-93.39v87.48h-47.78v-219.86h162.2v39.1h-114.42Z"/>
        <path class="cls-1" d="M1284.5,1083.37v-112.82h44.55v105.45c0,21.79,10.9,29.8,28.85,29.8,19.87,0,34.93-15.7,34.93-37.18v-98.07h44.55v168.58h-36.53l-3.21-23.08h-2.24c-11.86,16.03-31.09,26.92-55.13,26.92-33.97,0-55.77-17.31-55.77-59.61Z"/>
        <path class="cls-1" d="M1777.38,1054.84c0-60.26,30.45-88.14,85.9-88.14s86.22,27.88,86.22,88.14-30.13,88.14-86.22,88.14-85.9-27.88-85.9-88.14ZM1903.98,1058.69v-7.69c0-33.01-11.54-50-40.7-50s-40.39,16.99-40.39,50v7.69c0,33.01,11.54,49.68,40.39,49.68s40.7-16.67,40.7-49.68Z"/>
        <path class="cls-1" d="M1987.59,1083.37v-112.82h44.55v105.45c0,21.79,10.9,29.8,28.85,29.8,19.87,0,34.93-15.7,34.93-37.18v-98.07h44.55v168.58h-36.53l-3.21-23.08h-2.24c-11.86,16.03-31.09,26.92-55.13,26.92-33.97,0-55.77-17.31-55.77-59.61Z"/>
        <path class="cls-1" d="M1560.15,966.38c-20.83,0-32.69,13.79-39.1,30.45h-2.24l-3.54-26.28h-36.86v168.58h44.54v-84.31c0-29.78,13.16-44.84,40.07-44.84h2.7v.07h26.03l-28.23-43.52c-1.11-.09-2.23-.16-3.37-.16Z"/>
        <path class="cls-1" d="M1661.99,1050.68l-85.25-131.4h55.45l54.48,88.46h1.6l54.16-88.46h52.24l-84.61,131.4v88.46h-48.07v-88.46Z"/>
        <path class="cls-1" d="M1080.97,1054.84c0-60.26,30.45-88.14,85.9-88.14s86.22,27.88,86.22,88.14-30.13,88.14-86.22,88.14-85.9-27.88-85.9-88.14ZM1207.57,1058.69v-7.69c0-33.01-11.54-50-40.7-50s-40.39,16.99-40.39,50v7.69c0,33.01,11.54,49.68,40.39,49.68s40.7-16.67,40.7-49.68Z"/>
      </g>
      <g>
        <path class="cls-1" d="M625.72,192.06l-20.78,36.22c9.79,5.23,16.46,15.54,16.46,27.42,0,17.16-13.91,31.08-31.08,31.08-5.98,0-11.54-1.72-16.28-4.64l-19.71,34.36c46.8,26.85,110.53,56.53,187.87,76.17-.22-5.63-.34-11.31-.34-17.05,0-40.25,6.41-82.73,19.06-126.46-54.98-15.67-100.74-37.34-135.2-57.11Z"/>
        <path class="cls-1" d="M1452.38,529.15c-5.16,3.8-11.51,6.08-18.4,6.08-17.16,0-31.08-13.91-31.08-31.08,0-10.87,5.59-20.42,14.04-25.97l-32.2-46.32c-30.62,33.88-63.01,59.86-97.19,78l15.22,23.1-28,18.45-18.14-27.53c-34.21,12.94-72.63,19.44-115.3,19.44-5.98,0-11.92-.26-17.85-.76-25-1.79-49.41-8.12-73.24-19-34.71-17.25-63.61-46.04-81.65-88.73.52.09,1.04.19,1.57.28-17.76-42.48-21.45-94.6,3.32-145.22.52-1.21,1.04-2.42,1.6-3.61.39-.88.8-1.75,1.21-2.63,15.71-33.8,39.43-61.26,71.14-82.41,18.28-12.19,38.1-21.05,59.47-26.57.69-.21,1.38-.37,2.07-.54,17.35-4.49,35.51-6.75,54.14-6.48,5.57,0,10.88.13,15.95.41,1.17.04,2.33.11,3.48.19.45.04.88.07,1.32.11.2.02.39.02.58.04,5.37.43,10.43,1.04,15.19,1.81,0-.06.02-.13.02-.19,12.61,1.84,23.18,4.79,31.66,8.81,2.55,1.06,5.03,2.24,7.42,3.52,32.42,17.29,49.13,53.03,13.82,76.41-70.37,41.7-159.55,46.56-240.97,37.45-1.29,2.63-2.52,5.31-3.69,8.03l-.37.89-.43.86c-24.87,50.59-13.47,100.52,8.2,135.57,200.74,22.55,478.92-26.48,431.22-266.64-22.32-93.09-98.92-146.37-189.41-166.18-12.12-2.65-37.09-5.88-37.12-5.75.09.01.19.02.28.03-18.56-1.99-38.51-3-59.92-3-70.06,0-129.49,11.93-178.31,35.77-48.82,23.85-88.13,54.78-117.94,92.79-29.81,38.01-51.42,78.81-64.84,122.41-13.42,43.6-20.12,85.15-20.12,124.65,0,65.59,15.09,123.35,45.28,173.28,30.18,49.93,72.29,88.88,126.33,116.82,53.18,27.5,114.85,41.47,185,41.9.93-.02,1.86-.02,2.79-.04.71.02,1.43.04,2.14.06,38.34-.07,72.91-2.76,103.65-8.03.15-.02.3-.04.43-.07,37.31-7.22,72.01-19,104.86-34.57l-17.86-27.1,28-18.45,19.8,30.05c11.23-6.32,22.27-13.06,33.13-20.24,22.08-15.82,42.52-31.21,61.34-46.15,3.34-2.79,6.65-5.65,9.95-8.51l-31.57-45.41ZM1317.49,616.26l-28.49-43.23,28-18.45,28.49,43.23-28,18.45Z"/>
      </g>
    </g>
  </g>
</svg>